<svg width="46" height="42" viewBox="0 0 46 42" fill="none" xmlns="http://www.w3.org/2000/svg">
<path d="M16.6719 4.2H29.3281C29.7148 4.2 30.0312 4.515 30.0312 4.9V8.4H15.9688V4.9C15.9688 4.515 16.2852 4.2 16.6719 4.2ZM11.75 4.9V8.4H6.125C3.02246 8.4 0.5 10.9113 0.5 14V22.4H17.375H28.625H45.5V14C45.5 10.9113 42.9775 8.4 39.875 8.4H34.25V4.9C34.25 2.19625 32.0439 0 29.3281 0H16.6719C13.9561 0 11.75 2.19625 11.75 4.9ZM45.5 25.2H28.625V28C28.625 29.5488 27.3682 30.8 25.8125 30.8H20.1875C18.6318 30.8 17.375 29.5488 17.375 28V25.2H0.5V36.4C0.5 39.4887 3.02246 42 6.125 42H39.875C42.9775 42 45.5 39.4887 45.5 36.4V25.2Z" fill="#475569"/>
</svg>
