<svg width="13" height="13" viewBox="0 0 13 13" fill="none" xmlns="http://www.w3.org/2000/svg">
<path d="M10.8241 9.48492C10.7398 9.57563 10.6752 9.68517 10.6349 9.80571C10.5946 9.92626 10.5796 10.0548 10.5909 10.1823C10.6482 10.7722 10.7564 11.3552 10.9143 11.9236C9.78088 11.6424 9.08862 11.3168 8.77419 11.1461C8.59584 11.0493 8.39045 11.0264 8.19731 11.0817C7.64376 11.2405 7.07304 11.3201 6.5 11.3185C3.25325 11.3185 0.8125 8.87459 0.8125 6.09459C0.8125 3.31458 3.25325 0.870655 6.5 0.870655C9.74675 0.870655 12.1875 3.31546 12.1875 6.09459C12.1875 7.37271 11.6862 8.55854 10.8241 9.48492ZM11.2247 12.8848C11.4172 12.9257 11.6103 12.9631 11.804 12.9971C11.9665 13.025 12.09 12.8439 12.0258 12.682C11.9539 12.4996 11.8877 12.3146 11.8276 12.1274L11.8251 12.1187C11.6236 11.4918 11.4595 10.7709 11.3994 10.0996C12.3963 9.0287 13 7.62694 13 6.09459C13 2.72863 10.0896 0 6.5 0C2.91037 0 0 2.72863 0 6.09459C0 9.46054 2.91037 12.1892 6.5 12.1892C7.14382 12.1907 7.78501 12.1011 8.40694 11.9228C8.82944 12.1517 9.73863 12.5688 11.2247 12.8848Z" fill="#0F172A"/>
</svg>
