<svg width="70" height="42" viewBox="0 0 70 42" fill="none" xmlns="http://www.w3.org/2000/svg">
<path d="M35.3666 2.31897L24.9303 10.8948C23.1945 12.3168 22.8603 14.8764 24.1756 16.7032C25.5664 18.6502 28.2725 19.0331 30.1377 17.5564L40.8434 9.11181C41.5981 8.52113 42.6763 8.6524 43.2692 9.41809C43.8622 10.1838 43.722 11.2776 42.9673 11.8793L40.7141 13.6513L59.8184 31.503H64.325C67.182 31.503 69.5 29.1512 69.5 26.2525V12.2512C69.5 9.35246 67.182 7.00067 64.325 7.00067H56.1313H55.7H55.6245L55.2041 6.72721L47.3769 1.64078C45.7273 0.568805 43.7975 0 41.8353 0C39.485 0 37.1994 0.820391 35.3666 2.31897ZM37.8247 15.9265L32.2508 20.3238C28.8547 23.0147 23.9277 22.3146 21.3833 18.7706C18.9898 15.4343 19.5936 10.7745 22.7525 8.18204L31.7225 0.820391C30.4719 0.284402 29.1242 0.0109384 27.755 0.0109384C25.7281 -1.67072e-07 23.7552 0.612559 22.0625 1.75017L14.3 7.00067H5.675C2.81797 7.00067 0.5 9.35246 0.5 12.2512V26.2525C0.5 29.1512 2.81797 31.503 5.675 31.503H17.3403L27.1944 40.6258C29.3075 42.5838 32.5742 42.4306 34.5041 40.2867C35.097 39.6194 35.4959 38.8428 35.7008 38.0333L37.5336 39.7398C39.6359 41.6978 42.9134 41.5556 44.8433 39.4225C45.3284 38.8866 45.6842 38.2631 45.9106 37.6177C48.0022 39.0397 50.8484 38.7444 52.6058 36.7973C54.5356 34.6643 54.3955 31.339 52.2931 29.381L37.8247 15.9265Z" fill="#475569"/>
</svg>
