<svg width="38" height="45" viewBox="0 0 38 45" fill="none" xmlns="http://www.w3.org/2000/svg">
    <g clip-path="url(#clip0_191_267)">
    <path d="M0.5 18.125C0.5 12.5309 4.33571 8 9.07143 8H9.64286C10.9071 8 11.9286 9.20656 11.9286 10.7C11.9286 12.1934 10.9071 13.4 9.64286 13.4H9.07143C6.86429 13.4 5.07143 15.5178 5.07143 18.125V18.8H9.64286C12.1643 18.8 14.2143 21.2216 14.2143 24.2V29.6C14.2143 32.5784 12.1643 35 9.64286 35H5.07143C2.55 35 0.5 32.5784 0.5 29.6V26.9V24.2V18.125ZM18.7857 18.125C18.7857 12.5309 22.6214 8 27.3571 8H27.9286C29.1929 8 30.2143 9.20656 30.2143 10.7C30.2143 12.1934 29.1929 13.4 27.9286 13.4H27.3571C25.15 13.4 23.3571 15.5178 23.3571 18.125V18.8H27.9286C30.45 18.8 32.5 21.2216 32.5 24.2V29.6C32.5 32.5784 30.45 35 27.9286 35H23.3571C20.8357 35 18.7857 32.5784 18.7857 29.6V26.9V24.2V18.125Z" fill="#E2E8F0"/>
    </g>
    <defs>
    <clipPath id="clip0_191_267">
    <rect width="37" height="45" fill="white" transform="translate(0.5)"/>
    </clipPath>
    </defs>
</svg>
