<svg width="24" height="25" viewBox="0 0 24 25" fill="none" xmlns="http://www.w3.org/2000/svg">
<path fill-rule="evenodd" clip-rule="evenodd" d="M12.707 16.207C12.5194 16.3945 12.2651 16.4998 12 16.4998C11.7348 16.4998 11.4805 16.3945 11.293 16.207L5.63598 10.55C5.54047 10.4578 5.46428 10.3474 5.41188 10.2254C5.35947 10.1034 5.33188 9.97219 5.33073 9.83941C5.32957 9.70663 5.35487 9.57495 5.40516 9.45205C5.45544 9.32916 5.52969 9.2175 5.62358 9.12361C5.71747 9.02972 5.82913 8.95547 5.95202 8.90519C6.07492 8.8549 6.2066 8.8296 6.33938 8.83076C6.47216 8.83191 6.60338 8.8595 6.72538 8.91191C6.84739 8.96431 6.95773 9.0405 7.04998 9.13601L12 14.086L16.95 9.13601C17.1386 8.95385 17.3912 8.85305 17.6534 8.85533C17.9156 8.85761 18.1664 8.96278 18.3518 9.14819C18.5372 9.3336 18.6424 9.58441 18.6447 9.84661C18.6469 10.1088 18.5461 10.3614 18.364 10.55L12.707 16.207Z" fill="#0F172A"/>
</svg>
