<svg width="24" height="25" viewBox="0 0 24 25" fill="none" xmlns="http://www.w3.org/2000/svg">
<g clip-path="url(#clip0_113_957)">
<path fill-rule="evenodd" clip-rule="evenodd" d="M11.2931 8.793C11.4806 8.60553 11.7349 8.50021 12.0001 8.50021C12.2652 8.50021 12.5195 8.60553 12.7071 8.793L18.3641 14.45C18.5462 14.6386 18.647 14.8912 18.6447 15.1534C18.6425 15.4156 18.5373 15.6664 18.3519 15.8518C18.1665 16.0372 17.9157 16.1424 17.6535 16.1447C17.3913 16.147 17.1387 16.0462 16.9501 15.864L12.0001 10.914L7.05006 15.864C6.86146 16.0462 6.60885 16.147 6.34666 16.1447C6.08446 16.1424 5.83365 16.0372 5.64824 15.8518C5.46283 15.6664 5.35766 15.4156 5.35538 15.1534C5.35311 14.8912 5.4539 14.6386 5.63606 14.45L11.2931 8.793Z" fill="#0F172A"/>
</g>
<defs>
<clipPath id="clip0_113_957">
<rect width="24" height="24" fill="white" transform="translate(0 0.5)"/>
</clipPath>
</defs>
</svg>
