<svg width="24" height="24" viewBox="0 0 24 24" fill="none" xmlns="http://www.w3.org/2000/svg">
<path d="M9.88 9.88C9.58526 10.1546 9.34885 10.4858 9.18488 10.8538C9.02091 11.2218 8.93274 11.6191 8.92564 12.0219C8.91853 12.4247 8.99263 12.8248 9.14351 13.1984C9.2944 13.5719 9.51898 13.9113 9.80385 14.1962C10.0887 14.481 10.4281 14.7056 10.8016 14.8565C11.1752 15.0074 11.5753 15.0815 11.9781 15.0744C12.3809 15.0673 12.7782 14.9791 13.1462 14.8151C13.5142 14.6512 13.8454 14.4147 14.12 14.12" stroke="#64748B" stroke-width="2" stroke-linecap="round" stroke-linejoin="round"/>
<path d="M10.73 5.08C11.1513 5.02751 11.5754 5.00079 12 5C19 5 22 12 22 12C21.5529 12.9571 20.9922 13.8569 20.33 14.68" stroke="#64748B" stroke-width="2" stroke-linecap="round" stroke-linejoin="round"/>
<path d="M6.61 6.61C4.62125 7.96462 3.02987 9.82526 2 12C2 12 5 19 12 19C13.9159 19.0051 15.7908 18.4451 17.39 17.39" stroke="#64748B" stroke-width="2" stroke-linecap="round" stroke-linejoin="round"/>
<path d="M2 2L22 22" stroke="#64748B" stroke-width="2" stroke-linecap="round" stroke-linejoin="round"/>
</svg>
