<svg width="17" height="18" viewBox="0 0 17 18" fill="none" xmlns="http://www.w3.org/2000/svg">
<path d="M16 8.28629L8.90835 15.1808C8.03953 16.0255 6.86124 16.5 5.63259 16.5C4.40395 16.5 3.22564 16.0255 2.35685 15.1808C1.48807 14.3362 1 13.1906 1 11.9961C1 10.8017 1.48807 9.65612 2.35685 8.81144L8.97008 2.38208C9.54922 1.818 10.3352 1.50071 11.155 1.5C11.9748 1.4993 12.7614 1.81524 13.3416 2.37833C13.9218 2.94142 14.2482 3.70552 14.2488 4.50255C14.2496 5.29958 13.9246 6.06425 13.3455 6.62833L6.71679 13.0577C6.4272 13.3392 6.03442 13.4974 5.62488 13.4974C5.21533 13.4974 4.82256 13.3392 4.53296 13.0577C4.24337 12.7762 4.08068 12.3943 4.08068 11.9961C4.08068 11.598 4.24337 11.2161 4.53296 10.9346L11.0845 4.57272" stroke="#475569" stroke-width="2" stroke-linecap="round" stroke-linejoin="round"/>
</svg>
