<svg width="32" height="32" viewBox="0 0 32 32" fill="none" xmlns="http://www.w3.org/2000/svg">
<path d="M25.3333 4H6.66667C5.19391 4 4 5.19391 4 6.66667V25.3333C4 26.8061 5.19391 28 6.66667 28H25.3333C26.8061 28 28 26.8061 28 25.3333V6.66667C28 5.19391 26.8061 4 25.3333 4Z" stroke="#1E293B" stroke-width="2" stroke-linecap="round" stroke-linejoin="round"/>
<path d="M12 14.6667C13.4727 14.6667 14.6666 13.4728 14.6666 12C14.6666 10.5273 13.4727 9.33337 12 9.33337C10.5272 9.33337 9.33331 10.5273 9.33331 12C9.33331 13.4728 10.5272 14.6667 12 14.6667Z" stroke="#1E293B" stroke-width="2" stroke-linecap="round" stroke-linejoin="round"/>
<path d="M28 20L23.8853 15.8854C23.3853 15.3855 22.7071 15.1046 22 15.1046C21.2929 15.1046 20.6147 15.3855 20.1147 15.8854L8 28" stroke="#1E293B" stroke-width="2" stroke-linecap="round" stroke-linejoin="round"/>
</svg>
