<svg width="24" height="24" viewBox="0 0 24 24" fill="none" xmlns="http://www.w3.org/2000/svg">
<path d="M21.44 11.05L12.25 20.24C11.1241 21.3659 9.59717 21.9984 8.00498 21.9984C6.4128 21.9984 4.88583 21.3659 3.75998 20.24C2.63414 19.1142 2.00165 17.5872 2.00165 15.995C2.00165 14.4029 2.63414 12.8759 3.75998 11.75L12.33 3.18003C13.0805 2.42815 14.0991 2.00521 15.1614 2.00427C16.2238 2.00334 17.2431 2.42447 17.995 3.17503C18.7469 3.9256 19.1698 4.9441 19.1707 6.0065C19.1717 7.06889 18.7505 8.08815 18 8.84003L9.40998 17.41C9.0347 17.7853 8.52571 17.9961 7.99498 17.9961C7.46426 17.9961 6.95527 17.7853 6.57998 17.41C6.2047 17.0348 5.99387 16.5258 5.99387 15.995C5.99387 15.4643 6.2047 14.9553 6.57998 14.58L15.07 6.10003" stroke="#1E293B" stroke-width="2" stroke-linecap="round" stroke-linejoin="round"/>
</svg>
