<svg width="26" height="24" viewBox="0 0 26 24" fill="none" xmlns="http://www.w3.org/2000/svg">
<path d="M6.125 20.75C3 20.75 0.5 18.25 0.5 15.125C0.5 12.7031 2.0625 10.5938 4.25 9.85156C4.25 9.73438 4.25 9.61719 4.25 9.5C4.25 6.0625 7.02344 3.25 10.5 3.25C12.8047 3.25 14.8359 4.53906 15.8906 6.41406C16.4766 5.98438 17.2188 5.75 18 5.75C20.0703 5.75 21.75 7.42969 21.75 9.5C21.75 10.0078 21.6328 10.4375 21.4766 10.8672C23.7812 11.3359 25.5 13.3672 25.5 15.75C25.5 18.5234 23.2344 20.75 20.5 20.75H6.125ZM9.21094 12.2734C8.82031 12.6641 8.82031 13.25 9.21094 13.6016C9.5625 13.9922 10.1484 13.9922 10.5 13.6016L12.0625 12.0781V17.3125C12.0625 17.8594 12.4531 18.25 13 18.25C13.5078 18.25 13.9375 17.8594 13.9375 17.3125V12.0781L15.4609 13.6016C15.8125 13.9922 16.3984 13.9922 16.75 13.6016C17.1406 13.25 17.1406 12.6641 16.75 12.2734L13.625 9.14844C13.2734 8.79688 12.6875 8.79688 12.3359 9.14844L9.21094 12.2734Z" fill="#475569"/>
</svg>
