<svg width="193" height="44" viewBox="0 0 193 44" fill="none" xmlns="http://www.w3.org/2000/svg">
<path d="M11.9067 34.5309C8.19063 34.5309 4.36075 33.1278 1.51678 30.4735L5.08122 26.2265C7.05304 28.0087 9.70741 29.1842 12.0584 29.1842C14.7507 29.1842 16.1158 28.0845 16.1158 26.3782C16.1158 24.5201 14.4853 23.9134 12.0205 22.8516L8.34231 21.2969C5.46042 20.1594 2.61645 17.7704 2.61645 13.6751C2.61645 9.011 6.7876 5.37072 12.5893 5.37072C15.8504 5.37072 19.2252 6.62207 21.5762 9.011L18.5048 12.9167C16.6467 11.4758 14.8645 10.6795 12.5893 10.6795C10.3141 10.6795 8.9111 11.6275 8.9111 13.2959C8.9111 15.0781 10.8071 15.7607 13.2339 16.7466L16.8363 18.1875C20.287 19.5906 22.4484 21.8657 22.4484 25.8852C22.4484 30.5114 18.5427 34.5309 11.9067 34.5309ZM25.2491 34V3.74018H31.3162V21.2211H31.5058L38.2934 12.6134H45.0431L37.6488 21.4865L45.6498 34H38.976L34.0464 25.506L31.3162 28.6533V34H25.2491ZM47.2099 34V12.6134H53.3908V34H47.2099ZM50.2813 9.3902C48.1958 9.3902 46.7927 8.10093 46.7927 6.12912C46.7927 4.1573 48.1958 2.90595 50.2813 2.90595C52.3669 2.90595 53.8079 4.1573 53.8079 6.12912C53.8079 8.10093 52.3669 9.3902 50.2813 9.3902ZM63.2679 34.5309C59.0209 34.5309 57.58 31.7627 57.58 27.5158V3.74018H63.7609V27.7433C63.7609 29.1463 64.3676 29.5634 64.8985 29.5634C65.088 29.5634 65.2397 29.5634 65.6189 29.4876L66.3773 34.0379C65.6948 34.3034 64.7089 34.5309 63.2679 34.5309ZM74.0083 34.5309C69.7613 34.5309 68.3204 31.7627 68.3204 27.5158V3.74018H74.5013V27.7433C74.5013 29.1463 75.108 29.5634 75.6389 29.5634C75.8285 29.5634 75.9801 29.5634 76.3593 29.4876L77.1177 34.0379C76.4352 34.3034 75.4493 34.5309 74.0083 34.5309ZM79.5538 34V5.86368H89.1095C94.9112 5.86368 99.4615 7.49422 99.4615 12.8409C99.4615 15.3815 98.0585 18.0359 95.7075 18.908V19.0597C98.6273 19.8181 100.827 21.9416 100.827 25.6956C100.827 31.4215 96.0488 34 89.9058 34H79.5538ZM85.7726 17.1637H88.8061C92.0293 17.1637 93.4323 15.8365 93.4323 13.7509C93.4323 11.5137 91.9535 10.6036 88.8441 10.6036H85.7726V17.1637ZM85.7726 29.2601H89.4129C92.9394 29.2601 94.7974 27.9708 94.7974 25.3164C94.7974 22.8137 92.9773 21.752 89.4129 21.752H85.7726V29.2601ZM103.651 34V12.6134H108.656L109.149 16.3674H109.263C110.818 13.5234 113.169 12.0825 115.33 12.0825C116.543 12.0825 117.264 12.2721 117.871 12.5375L116.847 17.8463C116.088 17.6567 115.482 17.505 114.534 17.505C112.941 17.505 110.969 18.5667 109.832 21.5245V34H103.651ZM119.205 34V12.6134H125.386V34H119.205ZM122.277 9.3902C120.191 9.3902 118.788 8.10093 118.788 6.12912C118.788 4.1573 120.191 2.90595 122.277 2.90595C124.362 2.90595 125.803 4.1573 125.803 6.12912C125.803 8.10093 124.362 9.3902 122.277 9.3902ZM137.197 34.5309C131.85 34.5309 128.4 30.3218 128.4 23.3067C128.4 16.3295 132.798 12.0825 137.311 12.0825C139.7 12.0825 141.141 12.9546 142.62 14.3577L142.392 11.0587V3.74018H148.573V34H143.53L143.075 31.8765H142.961C141.406 33.3933 139.321 34.5309 137.197 34.5309ZM138.79 29.4876C140.193 29.4876 141.33 28.9567 142.392 27.4778V18.5667C141.255 17.505 139.965 17.1258 138.752 17.1258C136.628 17.1258 134.732 19.1355 134.732 23.2308C134.732 27.5158 136.249 29.4876 138.79 29.4876ZM160.342 43.1386C155.375 43.1386 151.431 41.5081 151.431 37.7161C151.431 35.9339 152.455 34.455 154.464 33.3933V33.2037C153.327 32.4832 152.493 31.3456 152.493 29.5634C152.493 28.0087 153.516 26.5298 154.92 25.5819V25.4302C153.403 24.3684 152 22.3587 152 19.8181C152 14.6989 156.209 12.0825 160.797 12.0825C162.01 12.0825 163.186 12.2721 164.096 12.6134H171.907V17.1258H168.419C168.874 17.7704 169.215 18.8701 169.215 20.0077C169.215 24.9372 165.461 27.2503 160.797 27.2503C160.001 27.2503 159.091 27.0986 158.143 26.7953C157.65 27.2882 157.346 27.6674 157.346 28.5017C157.346 29.5255 158.219 30.0943 160.607 30.0943H164.134C169.367 30.0943 172.287 31.6869 172.287 35.5168C172.287 39.9155 167.66 43.1386 160.342 43.1386ZM160.797 23.4963C162.503 23.4963 163.831 22.207 163.831 19.8181C163.831 17.505 162.541 16.2536 160.797 16.2536C159.091 16.2536 157.763 17.505 157.763 19.8181C157.763 22.207 159.091 23.4963 160.797 23.4963ZM161.328 39.2708C164.286 39.2708 166.333 38.0574 166.333 36.5785C166.333 35.1755 165.158 34.8342 162.996 34.8342H160.683C159.28 34.8342 158.408 34.7584 157.688 34.5309C156.853 35.2513 156.512 35.9718 156.512 36.7681C156.512 38.3987 158.408 39.2708 161.328 39.2708ZM182.792 34.5309C176.725 34.5309 172.023 30.3976 172.023 23.3067C172.023 16.3674 176.953 12.0825 182.072 12.0825C188.101 12.0825 191.135 16.4812 191.135 22.3587C191.135 23.4963 190.983 24.558 190.869 25.0889H177.977C178.508 28.3121 180.669 29.8288 183.627 29.8288C185.257 29.8288 186.736 29.3359 188.291 28.3879L190.338 32.1419C188.177 33.6587 185.371 34.5309 182.792 34.5309ZM177.863 21.0315H185.902C185.902 18.5288 184.764 16.8224 182.186 16.8224C180.138 16.8224 178.318 18.1875 177.863 21.0315Z" fill="#0F172A"/>
<path d="M126.233 6.15175C126.233 8.37973 124.427 10.1859 122.199 10.1859C119.971 10.1859 118.165 8.37973 118.165 6.15175C118.165 3.92377 119.971 2.11763 122.199 2.11763C124.427 2.11763 126.233 3.92377 126.233 6.15175Z" fill="#FFB700"/>
<path d="M54.339 6.02988C54.339 8.25786 52.5329 10.064 50.3049 10.064C48.0769 10.064 46.2708 8.25786 46.2708 6.02988C46.2708 3.80189 48.0769 1.99576 50.3049 1.99576C52.5329 1.99576 54.339 3.80189 54.339 6.02988Z" fill="#48953D"/>
</svg>


